***************************************************************

[IMG]http://www.torrentforce.org/imghost/3/greyshadow_tfbanner.png[/IMG]

***************************************************************

[IMG]http://www.torrentforce.org/imghost/4/greyshadow_cars2.jpg[/IMG]

***************************************************************

FILM TITLE: Cars 2 (2011) 

***************************************************************

Genre: Animation | Adventure | Comedy   

Release: 22 July 2011 (UK) 

Director: John Lasseter, Brad Lewis

Writer: Ben Queen (screenplay), John Lasseter (story),

Stars:  Owen Wilson, Larry the Cable Guy and Michael Caine

Country: USA 

Language: English | Japanese | Italian | French 

Plot:
Star race car Lightning McQueen and his pal Mater head overseas to 
compete in the World Grand Prix race. But the road to the championship 
becomes rocky as Mater gets caught up in an intriguing adventure of 
his own: international espionage.

IMDB Rating: 6.5/10 from 13,472 users   Metascore: 57/100
 
http://www.imdb.com/title/tt1216475/ 

****************************************************************

[IMG]http://www.torrentforce.org/imghost/4/greyshadow_cars2xvid1.png[/IMG]
[IMG]http://www.torrentforce.org/imghost/4/greyshadow_cars2xvid2.png[/IMG]
[IMG]http://www.torrentforce.org/imghost/4/greyshadow_cars2xvid3.png[/IMG]
[IMG]http://www.torrentforce.org/imghost/4/greyshadow_cars2xvid4.png[/IMG]

****************************************************************

[IMG]http://www.torrentforce.org/imghost/2/greyshadow_mediainfo.png[/IMG]
General
Complete name                    : Cars 2 2011 720p BDRip XviD ac3 (avi) [TFRG].avi
Format                           : AVI
Format/Info                      : Audio Video Interleave
Format profile                   : OpenDML
File size                        : 2.49 GiB
Duration                         : 1h 47mn
Overall bit rate                 : 3326 Kbps
Writing library                  : VirtualDub build 32842/release

Video
ID                               : 0
Format                           : MPEG-4 Visual
Format profile                   : Simple@L5
Format settings, BVOP            : No
Format settings, QPel            : No
Format settings, GMC             : No warppoints
Format settings, Matrix          : Default (H.263)
Codec ID                         : XVID
Codec ID/Hint                    : XviD
Duration                         : 1h 47mn
Bit rate                         : 2994 Kbps
Width                            : 1280 pixels
Height                           : 528 pixels
Display aspect ratio             : 2.40:1
Frame rate                       : 23.976 fps
Color space                      : YUV
Chroma subsampling               : 4:2:0
Bit depth                        : 8 bits
Scan type                        : Progressive
Compression mode                 : Lossy
Bits/(Pixel*Frame)               : 0.185
Stream size                      : 2.24 GiB (90%)
Writing library                  : XviD 64

Audio
ID                               : 1
Format                           : AC-3
Format/Info                      : Audio Coding 3
Mode extension                   : CM (complete main)
Codec ID                         : 2000
Duration                         : 1h 47mn
Bit rate mode                    : Constant
Bit rate                         : 320 Kbps
Channel(s)                       : 6 channels
Channel positions                : Front: L C R, Side: L R, LFE
Sampling rate                    : 48.0 KHz
Bit depth                        : 16 bits
Compression mode                 : Lossy
Stream size                      : 245 MiB (10%)
Alignment                        : Aligned on interleaves
Interleave, duration             : 42 ms (1.00 video frame)
Interleave, preload duration     : 512 ms

****************************************************************

Video Source: Cars 2 2011 BluRay 1080p AVC DTS-HD MA7.1-CHDBits (43.4GB)

Thanks: (chdbits.org)

****************************************************************

I provide a small sample, so please download this to check your 
compatibility first if you are unsure.

****************************************************************

7th October 2011

I am re-introducing my warning to all downloaders, please please
please use a proxy or vpn service, it is the only secure way to
keep your own ip address from being seen during downloading or
uploading/seeding, this WILL stop isp letters, as for advice to 
which one then thats simple, vpntunnel.se server based in Sweden 
is the right one to use, I have cancelled my vpn and transfered 
to a Swedish one already !!! enough said. 

****************************************************************

A big thanks to all the sites out there who care and share and
who make it possible for you to download this torrent for free.

Greetz to Westy, Ripwyn, mustang, noir, Blackjesus, MXMG, The Stig 
and all the other outstanding members of our community of file 
sharers and a special mention to our friends at 1337x.

****************************************************************